<svg xmlns="http://www.w3.org/2000/svg" viewBox="0 0 32 32">
  <rect width="32" height="32" fill="#050607"/>
  <!-- 葉棚（雲状の緑） -->
  <rect x="10" y="3"  width="14" height="4" fill="#43e6a0"/>
  <rect x="8"  y="5"  width="18" height="3" fill="#2bbd80"/>
  <rect x="4"  y="10" width="10" height="3" fill="#43e6a0"/>
  <rect x="3"  y="12" width="12" height="2" fill="#2bbd80"/>
  <rect x="20" y="13" width="9"  height="3" fill="#43e6a0"/>
  <rect x="19" y="15" width="10" height="2" fill="#2bbd80"/>
  <!-- 幹（S字・テーパー） -->
  <rect x="16" y="7"  width="2" height="4" fill="#5c4632"/>
  <rect x="15" y="10" width="2" height="4" fill="#5c4632"/>
  <rect x="14" y="13" width="3" height="4" fill="#5c4632"/>
  <rect x="13" y="16" width="4" height="4" fill="#5c4632"/>
  <!-- 枝 -->
  <rect x="10" y="12" width="5" height="2" fill="#5c4632"/>
  <rect x="17" y="15" width="5" height="2" fill="#5c4632"/>
  <!-- 土 -->
  <rect x="9" y="20" width="14" height="2" fill="#3a3128"/>
  <!-- 浅鉢（台形＋脚） -->
  <rect x="7"  y="22" width="18" height="2" fill="#4a5560"/>
  <rect x="8"  y="24" width="16" height="3" fill="#23282d"/>
  <rect x="9"  y="27" width="3"  height="2" fill="#23282d"/>
  <rect x="20" y="27" width="3"  height="2" fill="#23282d"/>
</svg>
